<!DOCTYPE svg PUBLIC "-//W3C//DTD SVG 1.1//EN" "http://www.w3.org/Graphics/SVG/1.1/DTD/svg11.dtd">
<svg width="200px" height="200px" viewBox="-2.4 -2.4 28.80 28.80" version="1.1" xml:space="preserve" xmlns="http://www.w3.org/2000/svg" xmlns:xlink="http://www.w3.org/1999/xlink" fill="#000000" stroke="#000000">
<g id="SVGRepo_bgCarrier" stroke-width="0">
<path transform="translate(-2.4,-2.4)" d="M14.4,26.81400884720497C16.56316435044451,27.163742128311423,18.87621075220588,26.51960845841804,20.673683916334994,25.266339293719906C22.422037076088543,24.047318532882397,23.33633942441973,21.997377174882946,24.139611777397608,20.02316748148296C24.86857520294072,18.23158750800802,25.245002831508046,16.328379995157277,25.095012593781576,14.4C24.95186742196397,12.559624986795383,24.25397487558957,10.841961997096606,23.302460515144542,9.260162025131288C22.362879438992234,7.6981999763170705,20.916969489024662,6.626437614139096,19.63778492524289,5.327890390360969C17.89719782130556,3.560956504855278,16.862878959686952,0.5160789066211856,14.400000000000004,0.22294744793325663C12.011492575229436,-0.06133232259957552,10.139770724607887,2.3393974590230684,8.389259894192222,3.9890927456489913C6.903208239283857,5.389559608343497,6.245344472516456,7.343335130641556,5.071507765073349,9.01419249703176C3.764147611817778,10.875109206094521,1.0396619019517288,12.126030636821426,1.0752273868303746,14.399999999999997C1.1109244019422377,16.682379081805728,3.7101547052625428,17.993894254343967,5.23847102160709,19.689411221863697C6.47214546771013,21.058051949829103,7.74301520451125,22.27977806343375,9.19754573833197,23.41091510526225C10.86169303949314,24.70506370622545,12.318895159361231,26.47754267712707,14.4,26.81400884720497" fill="#867eec" strokewidth="0"/>
</g>
<g id="SVGRepo_iconCarrier">
<style type="text/css"> .st0{display:none;} .st1{display:inline;} .st2{opacity:0.2;fill:none;stroke:#000000;stroke-width:5.000000e-02;stroke-miterlimit:10;} </style>
<g class="st0" id="grid_system"/>
<g id="_icons">
<path d="M14,10h-1V9c0-0.6-0.4-1-1-1s-1,0.4-1,1v1h-1c-0.6,0-1,0.4-1,1s0.4,1,1,1h1v1c0,0.6,0.4,1,1,1s1-0.4,1-1v-1h1 c0.6,0,1-0.4,1-1S14.6,10,14,10z"/>
<path d="M19,3h-1H6H5C4.4,3,4,3.4,4,4s0.4,1,1,1v14.1c0,0.7,0.4,1.4,1.1,1.8c0.3,0.2,0.6,0.2,0.9,0.2c0.4,0,0.8-0.1,1.1-0.3 l3.9-2.6l3.9,2.6c0.6,0.4,1.4,0.5,2.1,0.1c0.7-0.3,1.1-1,1.1-1.8V5c0.6,0,1-0.4,1-1S19.6,3,19,3z M17,19.1C17,19.1,17,19.1,17,19.1 l-3.9-2.6c-0.3-0.2-0.7-0.3-1.1-0.3s-0.8,0.1-1.1,0.3L7,19.1V5h10L17,19.1L17,19.1z"/>
</g>
</g>
</svg>